Coordinates
version=1
nRows=21
nColumns=33
inDegrees=yes

Units are S.I. units (second, meters, Newtons, ...)
Angles are in degrees.

endheader
time	ground_thorax_rot_x	ground_thorax_rot_y	ground_thorax_rot_z	ground_thorax_tx	ground_thorax_ty	ground_thorax_tz	clav_prot_r	clav_elev_r	scapula_abduction_r	scapula_elevation_r	scapula_upward_rot_r	scapula_winging_r	shoulder_elv_r	plane_of_elev_r	axial_rot_r	elbow_flexion_r	pro_sup_r	wrist_flex_r	wrist_dev_r	clav_prot_l	clav_elev_l	scapula_abduction_l	scapula_elevation_l	scapula_upward_rot_l	scapula_winging_l	shoulder_elv_l	plane_of_elev_l	axial_rot_l	elbow_flexion_l	pro_sup_l	wrist_flex_l	wrist_dev_l
      4.50000000	    -40.34025585	    -10.06376115	      7.97782968	   -197.92442050	    844.45843642	    -10.40699401	      9.66245795	    -45.00000000	     33.39034540	    -45.00000000	    -45.00000000	   1701.78557291	  -1911.30322607	    150.86404286	    -91.46601706	   1093.89361104	     42.67157738	     18.29875501	      6.38482903	     15.31975668	     38.43507041	    -36.03432557	    -45.00000000	    -45.00000000	   -276.56553070	  -2809.61969916	     19.37419253	    -45.84264163	   -349.45589166	     33.62202583	      9.18128939	    -22.48314980
      4.51000000	    -40.30432469	     -9.74526318	      7.90562349	   -198.99284459	    845.53447850	    -10.34222055	      9.35896394	    -45.00000000	     33.22644322	    -45.00000000	    -45.00000000	   1701.75412319	  -1911.15417950	    150.80045589	    -91.91698110	   1094.00868434	     42.31434996	     18.07147589	      6.44034503	     15.25925692	     38.90437682	    -36.10733831	    -45.00000000	    -45.00000000	   -276.59743052	  -2809.39084220	     19.10516532	    -46.75519609	   -349.17195052	     33.68388127	      8.87362597	    -22.37025214
      4.52000000	    -40.23657853	     -9.70221446	      7.98373954	   -199.81826534	    846.43443976	    -10.28877291	      9.55564726	    -45.00000000	     33.35038362	    -45.00000000	    -45.00000000	   1701.62848470	  -1911.17711406	    150.73227800	    -91.86561749	   1093.93339447	     42.01939028	     18.15970707	      6.39517926	     15.30757330	     38.49706446	    -35.97930853	    -45.00000000	    -45.00000000	   -276.49103273	  -2809.43791447	     19.10266674	    -46.87629941	   -349.24549159	     33.75968882	      8.86811651	    -22.39355432
      4.53000000	    -40.12872406	     -9.47615976	      7.84501476	   -200.40723600	    847.17124336	    -10.24217580	      9.53619720	    -45.00000000	     33.36799604	    -45.00000000	    -45.00000000	   1701.57042149	  -1911.00899775	    150.54638297	    -91.98761728	   1094.13908647	     41.72923718	     18.03285132	      6.36248192	     15.24865517	     38.66920074	    -35.86299584	    -45.00000000	    -45.00000000	   -276.62706644	  -2809.33458971	     19.07689599	    -47.11261305	   -349.18489048	     33.83477788	      8.76617502	    -22.33551898
      4.54000000	    -40.09508723	     -9.63279690	      8.14862214	   -200.77848393	    847.76157700	    -10.19352580	      9.60185694	    -45.00000000	     33.51722313	    -45.00000000	    -45.00000000	   1701.57613880	  -1911.04798205	    150.73549720	    -92.08661277	   1093.94803894	     41.50312597	     18.21998032	      6.41492320	     15.30549067	     38.28599959	    -35.87608873	    -45.00000000	    -45.00000000	   -276.41502089	  -2809.44920494	     18.90655623	    -47.31417120	   -349.22373451	     33.93804768	      8.74324113	    -22.34643550
      4.55000000	    -40.04637603	     -9.37113911	      8.04712891	   -200.95027334	    848.22044499	    -10.13752981	      9.67866347	    -45.00000000	     33.44662043	    -45.00000000	    -45.00000000	   1701.51421357	  -1911.07356597	    150.53973680	    -92.18471455	   1093.98156685	     41.25405344	     17.91813565	      6.35060269	     15.19117605	     38.70271473	    -35.79146150	    -45.00000000	    -45.00000000	   -276.63408416	  -2809.20990704	     18.84817604	    -47.65716072	   -349.16674004	     34.03703603	      8.59266947	    -22.25280797
      4.56000000	    -39.99074979	     -9.60394313	      8.37110781	   -200.94508941	    848.56504310	    -10.07143707	      9.66456566	    -45.00000000	     33.57546123	    -45.00000000	    -45.00000000	   1701.53077093	  -1910.95838124	    150.70467655	    -92.23244695	   1093.97681098	     41.09220304	     18.31210684	      6.42090463	     15.31543655	     38.09240420	    -35.78538085	    -45.00000000	    -45.00000000	   -276.27964956	  -2809.39138713	     18.84900949	    -47.84852312	   -349.19952798	     34.16292596	      8.57639285	    -22.26137615
      4.57000000	    -39.95685059	     -9.39903478	      8.28786896	   -200.78847366	    848.82075783	     -9.99583515	      9.74736285	    -45.00000000	     33.55351173	    -45.00000000	    -45.00000000	   1701.49583377	  -1911.01968720	    150.51388016	    -92.32275331	   1093.95027173	     40.92899574	     17.90267165	      6.33472821	     15.17444904	     38.70879757	    -35.78984081	    -45.00000000	    -45.00000000	   -276.53229934	  -2809.13511479	     18.65014596	    -48.08347119	   -349.06399324	     34.30135999	      8.36175686	    -22.16066717
      4.58000000	    -39.89299641	     -9.51147657	      8.45910394	   -200.50738211	    849.00274141	     -9.91341138	      9.75133718	    -45.00000000	     33.56478833	    -45.00000000	    -45.00000000	   1701.55156098	  -1910.93977835	    150.54901022	    -92.34101139	   1093.92698281	     40.88880493	     18.30087328	      6.39493042	     15.30189651	     38.06910758	    -35.71618192	    -45.00000000	    -45.00000000	   -276.31323579	  -2809.28764153	     18.79846247	    -48.31878117	   -349.06011086	     34.52298264	      8.39502015	    -22.21258279
      4.59000000	    -39.86927375	     -9.40707817	      8.45477259	   -200.12778094	    849.13367648	     -9.82696592	      9.79921238	    -45.00000000	     33.56467566	    -45.00000000	    -45.00000000	   1701.51406535	  -1911.01338050	    150.44484516	    -92.42604503	   1093.96478012	     40.88067140	     17.91827833	      6.30140580	     15.19018715	     38.72416685	    -35.74960932	    -45.00000000	    -45.00000000	   -276.51047661	  -2809.08064762	     18.59429281	    -48.47105246	   -348.92764607	     34.76552732	      8.12413749	    -22.09076167
      4.60000000	    -39.82179856	     -9.49670323	      8.59736562	   -199.67930119	    849.22855526	     -9.73877714	      9.79255918	    -45.00000000	     33.60335368	    -45.00000000	    -45.00000000	   1701.58326074	  -1910.90506761	    150.49884002	    -92.40990841	   1093.95074989	     41.01958404	     18.35536912	      6.36976932	     15.30600002	     38.00492263	    -35.75437381	    -45.00000000	    -45.00000000	   -276.27691520	  -2809.24729326	     18.72415961	    -48.64815479	   -348.90073379	     35.11605399	      8.16244555	    -22.16046509
      4.61000000	    -39.82565564	     -9.44841357	      8.57127905	   -199.18114619	    849.30339217	     -9.64850971	      9.81537305	    -45.00000000	     33.60948493	    -45.00000000	    -45.00000000	   1701.57145979	  -1910.93846516	    150.35424176	    -92.47017782	   1093.99585829	     41.20773869	     17.96951212	      6.27116543	     15.21466298	     38.70321122	    -35.74093926	    -45.00000000	    -45.00000000	   -276.45385929	  -2809.05137174	     18.58216651	    -48.73583064	   -348.75585524	     35.50446470	      7.87180139	    -22.04409309
      4.62000000	    -39.82185180	     -9.56032826	      8.55919911	   -198.65702425	    849.36950665	     -9.55682537	      9.80950036	    -45.00000000	     33.80678392	    -45.00000000	    -44.72143537	   1701.70125138	  -1910.86265801	    150.45533359	    -92.37944076	   1094.08297653	     41.51045628	     18.48004092	      6.34956496	     15.32511464	     37.89013488	    -35.90796928	    -45.00000000	    -45.00000000	   -276.21553252	  -2809.25204494	     18.58094176	    -48.88403272	   -348.72710413	     35.96847972	      7.95269263	    -22.15751103
      4.63000000	    -39.79946418	     -9.52452422	      8.67240178	   -198.11640210	    849.44015304	     -9.46479914	      9.78384879	    -45.00000000	     33.71149333	    -45.00000000	    -45.00000000	   1701.63951532	  -1910.88312622	    150.34015045	    -92.29442208	   1094.14249502	     41.90794295	     18.09079139	      6.23896933	     15.22816856	     38.55750772	    -35.83149576	    -45.00000000	    -45.00000000	   -276.35076662	  -2809.11509974	     18.59573768	    -48.81340529	   -348.54772222	     36.48916645	      7.61642199	    -22.01980846
      4.64000000	    -39.76942359	     -9.51424128	      8.70541451	   -197.57810476	    849.52609347	     -9.37683052	      9.85288329	    -45.00000000	     33.72632163	    -45.00000000	    -45.00000000	   1701.66725640	  -1910.85536339	    150.31428490	    -92.55793494	   1094.13700364	     42.33247266	     18.29892222	      6.20852164	     15.29819551	     38.21601921	    -35.86058019	    -45.00000000	    -45.00000000	   -276.38023507	  -2809.02998916	     18.61627337	    -49.07834332	   -348.48327711	     37.07443545	      7.71483569	    -22.18924298
      4.65000000	    -39.75693523	     -9.65394697	      8.74068084	   -197.04483796	    849.63898816	     -9.29593947	      9.88658637	    -45.00000000	     33.89965524	    -45.00000000	    -45.00000000	   1701.69747664	  -1910.85268568	    150.32199626	    -92.47605474	   1094.21618734	     42.78649674	     18.09816409	      6.23581670	     15.19092150	     38.65489027	    -35.72306938	    -45.00000000	    -45.00000000	   -276.40968837	  -2809.00314997	     18.65387067	    -48.91251044	   -348.44050044	     37.56292328	      7.32542082	    -21.96200612
      4.66000000	    -39.76880115	     -9.56449624	      8.70528412	   -196.51926530	    849.78985622	     -9.22653757	      9.94422822	    -45.00000000	     33.78736499	    -45.00000000	    -45.00000000	   1701.67270520	  -1910.77625636	    150.23532311	    -92.57202902	   1094.18338969	     43.30173827	     18.34210099	      6.12546182	     15.21187245	     38.04961775	    -35.93324180	    -45.00000000	    -45.00000000	   -276.39018112	  -2808.93444041	     18.63723070	    -49.11166992	   -348.34164108	     38.20444986	      7.62466889	    -22.29434627
      4.67000000	    -39.76250225	     -9.61405580	      8.71883535	   -196.00077061	    849.98938177	     -9.17273115	      9.86493928	    -45.00000000	     33.92047995	    -45.00000000	    -45.00000000	   1701.73044086	  -1910.77533445	    150.26074481	    -92.57020778	   1094.28418172	     43.84086236	     18.05867893	      6.19585233	     15.29998940	     38.83554671	    -35.91958078	    -45.00000000	    -45.00000000	   -276.34063892	  -2808.99963061	     18.71867689	    -48.94042855	   -348.31739177	     38.73224350	      7.06601749	    -21.94564108
      4.68000000	    -39.75220180	     -9.63970530	      8.75977744	   -195.48864984	    850.24632645	     -9.13780194	      9.96054811	    -45.00000000	     33.86985832	    -45.00000000	    -45.00000000	   1701.72039925	  -1910.72104267	    150.18428778	    -92.69588077	   1094.27560075	     44.42222033	     18.36796311	      6.03807170	     15.19216327	     37.92883556	    -35.96851973	    -45.00000000	    -45.00000000	   -276.40212602	  -2808.85642828	     18.67227153	    -49.13022528	   -348.19089113	     39.42108002	      7.47114040	    -22.36967152
      4.69000000	    -39.78450008	     -9.63822258	      8.70923990	   -194.97730826	    850.56978664	     -9.12243047	      9.99409889	    -45.00000000	     34.00047038	    -45.00000000	    -45.00000000	   1701.71163350	  -1910.72847671	    150.16207091	    -92.67521196	   1094.37608076	     45.05328891	     18.05722053	      6.11613648	     15.18391034	     38.78420172	    -35.97605691	    -45.00000000	    -45.00000000	   -276.35581126	  -2808.82684552	     18.77631748	    -48.86660320	   -348.24486029	     40.00681909	      6.88890578	    -21.98350807
      4.70000000	    -39.77506475	     -9.67778790	      8.72018616	   -194.46384927	    850.96565112	     -9.12513015	      9.97020988	    -45.00000000	     34.04688945	    -45.00000000	    -45.00000000	   1701.76775396	  -1910.64160263	    150.15135772	    -92.84297962	   1094.45416500	     45.68179964	     18.33229211	      5.94387851	     15.23613296	     38.02895422	    -36.06035685	    -45.00000000	    -45.00000000	   -276.32446062	  -2808.75102605	     18.75747216	    -49.05094824	   -348.10343844	     40.71451475	      7.21224620	    -22.35231357
